<svg xmlns="http://www.w3.org/2000/svg" width="120" height="120" viewBox="0 0 120 120" fill="none">
  <rect width="120" height="120" rx="24" fill="#FAF6ED"/>
  <circle cx="60" cy="54" r="15" fill="#3D6B4F"/>
  <ellipse cx="41" cy="39" rx="10" ry="12" fill="#3D6B4F" transform="rotate(-18 41 39)"/>
  <ellipse cx="79" cy="39" rx="10" ry="12" fill="#3D6B4F" transform="rotate(18 79 39)"/>
  <ellipse cx="32" cy="60" rx="9" ry="11" fill="#3D6B4F" transform="rotate(-35 32 60)"/>
  <ellipse cx="88" cy="60" rx="9" ry="11" fill="#3D6B4F" transform="rotate(35 88 60)"/>
  <path
    d="M36 82c7 12 18 16 24 16s17-4 24-16c2-4 7-4 9-1 2 3 2 7-1 10-10 13-24 20-32 20s-22-7-32-20c-3-3-3-7-1-10 2-3 7-3 9 1z"
    fill="#F4C430"
  />
</svg>
